<?xml version="1.0" encoding="UTF-8"?>
<svg width="16" height="16" viewBox="0 0 4.2333 4.2333" xmlns="http://www.w3.org/2000/svg">
  <path d="m0.57878 3.9687c-0.31936 0-0.57878-0.26872-0.57878-0.58704v-2.5301c0-0.31833 0.25942-0.58704 0.57878-0.58704h3.0758c0.31936 0 0.57878 0.26872 0.57878 0.58704v2.5301c0 0.31833-0.25942 0.58704-0.57878 0.58704zm0-0.52917h3.0758c0.032039 0 0.049609-0.021704 0.049609-0.057878v-2.5301c0-0.036174-0.01757-0.057878-0.049609-0.057878h-3.0758c-0.032039 0-0.049609 0.021704-0.049609 0.057878v2.5301c0 0.036174 0.01757 0.057878 0.049609 0.057878z" stroke-width=".26458"/>
</svg>
